<svg width="76" height="49" viewBox="0 0 76 49" fill="none" xmlns="http://www.w3.org/2000/svg">
<g clip-path="url(#clip0_142_216)">
<path d="M0 34.0856C0.327966 33.489 0.823867 33.2381 1.51141 33.24C5.08545 33.2559 8.65751 33.248 12.2316 33.248C12.354 33.248 12.4785 33.248 12.601 33.2618C13.3024 33.3467 13.7667 33.8426 13.7469 34.4768C13.7272 35.117 13.251 35.5911 12.5299 35.605C11.1252 35.6287 9.72044 35.6148 8.31572 35.6168C8.05097 35.6168 7.78426 35.6168 7.46814 35.6168V38.3275C8.30386 38.3275 9.10995 38.3275 9.91603 38.3275C11.1983 38.3275 12.4785 38.3117 13.7607 38.3374C14.1697 38.3453 14.3515 38.203 14.5234 37.8316C15.8886 34.8977 18.208 33.2717 21.4442 33.2835C24.6429 33.2954 26.9505 34.8977 28.3019 37.8138C28.4679 38.1714 28.6378 38.3393 29.0586 38.3374C36.9199 38.3235 44.7812 38.3275 52.6445 38.3255C52.765 38.3255 52.8835 38.3077 53.1068 38.288C53.1068 38.0035 53.1068 37.7427 53.1068 37.4839C53.1068 34.8957 53.0791 32.3075 53.1325 29.7213C53.1424 29.2689 53.3814 28.6762 53.7212 28.4035C54.4542 27.8168 55.4579 28.4628 55.4697 29.4882C55.4915 31.2861 55.4757 33.0859 55.4757 34.8858C55.4757 35.8223 55.4618 36.7588 55.4855 37.6953C55.4915 37.9027 55.6278 38.1082 55.7029 38.3136C55.8827 38.1536 56.1375 38.0291 56.2304 37.8296C57.2696 35.5931 58.943 34.0995 61.3415 33.4929C64.8721 32.6019 68.4521 34.3366 69.9654 37.6715C70.1926 38.1734 70.4436 38.3808 71.0027 38.3393C71.7574 38.286 72.518 38.3255 73.3142 38.3255V33.078C72.8045 33.078 72.3165 33.0978 71.8325 33.0741C69.8726 32.9832 68.3671 31.456 68.3138 29.4921C68.29 28.6545 68.294 27.8168 68.3098 26.9791C68.3256 26.1038 68.7543 25.679 69.6474 25.6672C70.7755 25.6494 71.9016 25.6632 73.0396 25.6632C72.8164 24.3494 71.4591 23.0573 69.9812 23.0375C65.1803 22.9704 60.3793 23.0119 55.4757 23.0119C55.4757 23.4524 55.4895 23.8634 55.4717 24.2723C55.4421 24.9955 55.0015 25.4736 54.3574 25.5052C53.6896 25.5388 53.1759 25.0508 53.1147 24.3119C53.0969 24.0906 53.1088 23.8693 53.1088 23.6461C53.1088 16.9919 53.1088 10.3377 53.1088 3.68359V2.77872H7.41678V3.66778C7.41678 10.3219 7.41678 16.9761 7.41678 23.6302C7.41678 23.8515 7.42468 24.0748 7.41085 24.2961C7.36936 25.0113 6.91692 25.4894 6.27285 25.5072C5.63865 25.5249 5.13287 25.0547 5.05779 24.3593C5.03408 24.14 5.04594 23.9167 5.04594 23.6935C5.04594 16.9168 5.04594 10.1382 5.04594 3.36155C5.04791 1.28311 5.94883 0.372314 8.00553 0.372314C22.8411 0.372314 37.6786 0.372314 52.5141 0.372314C54.5945 0.372314 55.4737 1.25348 55.4757 3.33981C55.4757 3.9997 55.4757 4.66156 55.4757 5.38466C55.7997 5.39849 56.0605 5.42023 56.3232 5.4222C58.862 5.42418 61.4008 5.47159 63.9376 5.41232C67.1619 5.33527 69.9002 7.58164 69.3391 11.8709C69.2878 12.264 68.861 12.6078 68.5232 13.0978C69.0922 15.3738 69.6967 17.8316 70.3369 20.2814C70.3882 20.477 70.6569 20.7023 70.8664 20.7596C73.8852 21.5854 75.7088 23.9108 75.7187 27.0205C75.7305 31.0628 75.7226 35.1031 75.7187 39.1454C75.7187 40.2874 75.3137 40.6825 74.15 40.6904C73.0218 40.6963 71.8917 40.6904 70.6984 40.6904C70.568 43.2351 69.6059 45.3155 67.5709 46.8171C66.1306 47.88 64.4987 48.3541 62.7146 48.2573C59.6464 48.0914 55.9202 45.7936 55.5962 40.7517H28.9598C28.8334 43.3537 27.7862 45.4914 25.5991 46.985C24.145 47.9807 22.5151 48.4016 20.7646 48.2396C17.398 47.9294 14.1144 45.3274 13.8773 40.722C13.6521 40.7121 13.417 40.6904 13.1819 40.6904C11.8009 40.6865 10.4179 40.6292 9.04278 40.7003C5.93698 40.8603 4.83256 40.0325 5.04791 36.658C5.06767 36.3419 5.04989 36.0238 5.04989 35.6109C3.86447 35.6109 2.73634 35.5793 1.61019 35.6227C0.900919 35.6504 0.365504 35.439 0.0019757 34.8226V34.0837L0 34.0856ZM55.5152 20.5778H67.885C67.8653 20.3921 67.8672 20.2439 67.8317 20.1036C67.2864 17.9086 66.7194 15.7176 66.1958 13.5186C66.0773 13.0188 65.8698 12.8568 65.3522 12.8607C62.2978 12.8864 59.2453 12.8726 56.1909 12.8745C55.9775 12.8745 55.7621 12.9042 55.5132 12.9239V20.5778H55.5152ZM63.1196 45.9043C65.9251 45.9201 68.2545 43.6303 68.296 40.8149C68.3355 37.9916 65.9844 35.6247 63.1473 35.6287C60.3359 35.6326 58.0164 37.9422 58.0065 40.7497C57.9967 43.5473 60.3161 45.8865 63.1196 45.9023V45.9043ZM21.3948 45.9043C24.2043 45.9181 26.5139 43.6382 26.5554 40.807C26.5988 37.9837 24.2478 35.6208 21.4067 35.6287C18.5933 35.6366 16.2837 37.9481 16.2798 40.7576C16.2758 43.5631 18.5894 45.8905 21.3948 45.9043ZM55.5191 10.4346H66.9604C67.0058 8.90338 65.8935 7.8128 64.2735 7.80292C61.5411 7.78711 58.8087 7.79699 56.0763 7.80292C55.8886 7.80292 55.7009 7.84243 55.5191 7.86417V10.4365V10.4346ZM73.2965 30.6657V28.0934H70.7162C70.5246 30.4385 70.9592 30.8692 73.2965 30.6657Z" fill="#999999"/>
<path d="M28.9123 22.7511C32.2196 19.4398 35.355 16.3024 38.4885 13.165C38.8204 12.833 39.1405 12.4932 39.4843 12.1751C40.0533 11.6496 40.7112 11.6259 41.2011 12.0922C41.701 12.5703 41.699 13.2934 41.1379 13.8624C39.3025 15.7215 37.4493 17.5629 35.602 19.4102C33.7725 21.2397 31.945 23.0711 30.1115 24.8986C29.2758 25.7304 28.7424 25.7324 27.9165 24.9085C25.9626 22.9585 24.0145 21.0026 22.0586 19.0565C21.6476 18.6475 21.3711 18.2129 21.5805 17.6123C21.8808 16.7469 22.8923 16.5572 23.6154 17.2665C25.1802 18.8036 26.7272 20.3585 28.2702 21.9173C28.4934 22.1425 28.6614 22.4231 28.9103 22.753L28.9123 22.7511Z" fill="#999999"/>
<path d="M40.3735 35.6129C37.6135 35.6129 34.8534 35.6129 32.0934 35.6129C31.8227 35.6129 31.5461 35.6227 31.2833 35.5734C30.6946 35.4607 30.3053 35.0261 30.3883 34.4887C30.4515 34.0777 30.821 33.6668 31.1549 33.3665C31.3307 33.2065 31.7199 33.2539 32.0124 33.2539C37.6056 33.248 43.1988 33.2499 48.7939 33.2499C48.9658 33.2499 49.1397 33.246 49.3096 33.2677C50.0031 33.3625 50.4595 33.8782 50.4199 34.5124C50.3824 35.1249 49.9221 35.5813 49.2444 35.603C48.3336 35.6326 47.4208 35.6148 46.51 35.6148C44.4652 35.6148 42.4203 35.6148 40.3735 35.6148V35.6129Z" fill="#999999"/>
<path d="M11.2397 30.5551C8.82538 30.5551 6.41306 30.557 3.99875 30.5551C3.06424 30.5551 2.52488 30.1125 2.52883 29.3775C2.53278 28.6544 3.09388 28.1941 4.0106 28.1921C8.88663 28.1882 13.7627 28.1921 18.6387 28.1882C19.1978 28.1882 19.7293 28.3205 19.913 28.8658C20.0296 29.2136 20.0276 29.7747 19.8202 30.0157C19.5613 30.316 19.0378 30.5254 18.6249 30.5333C16.1631 30.5788 13.6994 30.557 11.2377 30.557L11.2397 30.5551Z" fill="#999999"/>
<path d="M63.1493 38.3314C64.5125 38.3314 65.6011 39.4122 65.5991 40.7635C65.5991 42.1011 64.4829 43.2193 63.1512 43.2213C61.8176 43.2213 60.7073 42.109 60.7053 40.7655C60.7033 39.4082 61.786 38.3295 63.1493 38.3295V38.3314Z" fill="#999999"/>
<path d="M23.8527 40.7931C23.8389 42.1465 22.7265 43.245 21.391 43.2213C20.0613 43.1995 18.947 42.0576 18.9648 40.7358C18.9826 39.3884 20.085 38.3176 21.4463 38.3294C22.8135 38.3413 23.8665 39.4181 23.8527 40.7912V40.7931Z" fill="#999999"/>
</g>
<defs>
<clipPath id="clip0_142_216">
<rect width="75.7226" height="47.9028" fill="white" transform="translate(0 0.372314)"/>
</clipPath>
</defs>
</svg>
