<svg width="80" height="57" viewBox="0 0 80 57" fill="none" xmlns="http://www.w3.org/2000/svg">
<path d="M39.9851 0.0019555C40.0477 0.0723535 40.1014 0.116352 40.1347 0.172084C41.4038 2.28402 42.669 4.3989 43.9411 6.50986C44.074 6.72985 44.1503 6.95082 44.1259 7.20699C44.119 7.27641 44.1249 7.34779 44.1249 7.41819C44.1249 8.24243 44.1347 8.23461 44.6108 8.89557C45.4057 10.0004 46.186 11.117 46.9721 12.2277C47.589 13.0999 48.2021 13.974 48.8269 14.8403C48.9501 15.0114 49.0117 15.1815 49.0087 15.3917C49.0009 16.0263 49.0097 16.6599 49.0019 17.2944C48.999 17.5301 49.0713 17.7227 49.2141 17.9094C50.492 19.5922 51.7601 21.2817 53.039 22.9634C53.1984 23.1727 53.26 23.3858 53.26 23.6449C53.2502 27.6498 53.2473 31.6556 53.2434 35.6605C53.2434 35.7309 53.2414 35.8013 53.2404 35.8717C53.2375 36.0183 53.1554 36.0809 53.0165 36.0829C52.9461 36.0829 52.8757 36.0858 52.8053 36.0858C49.7988 36.0858 46.7922 36.0897 43.7856 36.0848C41.6717 36.0809 39.5588 36.0545 37.4449 36.0555C34.0511 36.0575 30.6573 36.0751 27.2636 36.0858C26.7464 36.0878 26.7463 36.0858 26.7463 35.5637C26.7444 31.8639 26.7434 28.1641 26.7356 24.4643C26.7356 24.2326 26.7776 24.0321 26.9116 23.8385C28.0751 22.146 29.2318 20.4496 30.3924 18.7552C30.6173 18.4267 30.629 18.4257 30.9839 18.6027C31.3408 18.7806 31.6967 18.9605 32.0555 19.1336C32.3489 19.2744 32.431 19.2235 32.432 18.8921C32.4349 17.7647 32.4369 16.6374 32.4271 15.5091C32.4241 15.2157 32.4897 14.9752 32.6744 14.7318C33.659 13.4314 34.6202 12.1133 35.5979 10.808C35.7896 10.5529 35.8893 10.2928 35.8834 9.96718C35.8658 9.05103 35.8805 8.13488 35.8717 7.21873C35.8688 6.96451 35.9186 6.74159 36.0516 6.51866C37.1271 4.72938 38.1938 2.93423 39.2635 1.14006C39.4503 0.828154 39.635 0.514296 39.8238 0.203372C39.8638 0.136885 39.9206 0.0811532 39.9851 0V0.0019555ZM30.3738 20.1025C30.3406 20.0967 30.3063 20.0908 30.2731 20.084C30.2115 20.1495 30.1391 20.2072 30.0883 20.2805C29.2582 21.49 28.4359 22.7043 27.6009 23.9109C27.3985 24.2032 27.3076 24.5014 27.3086 24.8612C27.3154 28.2091 27.3086 31.5559 27.3066 34.9037C27.3066 34.9858 27.3037 35.068 27.3095 35.1501C27.3271 35.4366 27.3907 35.5158 27.6674 35.5177C28.4779 35.5246 29.2885 35.5246 30.0981 35.5168C30.3542 35.5138 30.4022 35.4542 30.4198 35.199C30.4276 35.0934 30.4227 34.9878 30.4227 34.8822C30.4227 33.4254 30.4266 31.9695 30.4168 30.5126C30.4149 30.2653 30.4823 30.0991 30.6916 29.9553C31.3809 29.487 32.0575 29.0001 32.74 28.5229C32.8025 28.4789 32.8739 28.4496 32.9942 28.386C32.9942 28.563 32.9942 28.6872 32.9942 28.8123C32.9932 30.891 32.9903 32.9707 32.9912 35.0494C32.9912 35.461 33.0489 35.5177 33.4596 35.5207C34.0472 35.5246 34.6339 35.5207 35.2215 35.5207C35.6673 35.5207 35.8903 35.303 35.8903 34.8675C35.8854 27.3037 35.8795 19.7388 35.8746 12.1749C35.8746 12.0928 35.8844 12.0077 35.8668 11.9295C35.8512 11.8601 35.8042 11.7966 35.7231 11.6333C35.6546 11.7555 35.6263 11.821 35.5852 11.8767C34.8089 12.9219 34.0384 13.972 33.2494 15.0075C33.0665 15.248 32.9991 15.4895 32.9991 15.7838C33.0039 18.3563 32.9961 20.9287 33.002 23.5012C33.002 23.7515 32.9277 23.9226 32.7263 24.0654C32.036 24.5533 31.3525 25.0509 30.6652 25.5408C30.6055 25.5828 30.5312 25.6024 30.4178 25.6532C30.4178 25.4772 30.4178 25.3501 30.4178 25.223C30.4178 23.6606 30.4178 22.0981 30.4139 20.5367C30.4139 20.3929 30.3875 20.2482 30.3738 20.1045V20.1025ZM39.4972 1.95257C39.4698 2.00243 39.4473 2.0435 39.4239 2.08359C39.0416 2.7289 38.6593 3.37519 38.275 4.02051C37.7773 4.85746 37.2845 5.69735 36.7742 6.52648C36.5845 6.83447 36.4769 7.13855 36.4769 7.51205C36.4838 13.9945 36.4789 20.477 36.475 26.9595C36.474 29.6248 36.4701 32.2912 36.4691 34.9565C36.4691 35.4659 36.4906 35.4874 37.0098 35.4874C37.703 35.4874 38.3953 35.4874 39.0885 35.4874C39.5004 35.4874 39.7064 35.2779 39.7064 34.8587C39.6976 30.1616 39.6869 25.4645 39.679 20.7674C39.6732 17.1038 39.6683 13.4392 39.6654 9.77554C39.6634 7.29792 39.6654 4.81933 39.6644 2.34171C39.6644 2.22047 39.7094 2.07967 39.4962 1.95159L39.4972 1.95257ZM40.4476 1.99168C40.2618 2.10021 40.3126 2.24296 40.3126 2.36322C40.3058 8.15346 40.298 13.9427 40.297 19.7329C40.297 23.6205 40.3068 27.507 40.3087 31.3946C40.3087 32.5688 40.297 33.7431 40.2941 34.9174C40.2931 35.4601 40.3253 35.4884 40.8787 35.4884C41.4185 35.4884 41.9592 35.4884 42.4989 35.4884C42.7101 35.4884 42.9213 35.4923 43.1334 35.4874C43.4434 35.4796 43.4913 35.4297 43.504 35.11C43.5069 35.0279 43.505 34.9458 43.504 34.8636C43.504 33.9592 43.5021 33.0548 43.5021 32.1504C43.4972 23.8825 43.4913 15.6147 43.4923 7.34681C43.4923 7.07402 43.416 6.84718 43.2791 6.62132C42.4001 5.16545 41.526 3.70567 40.648 2.24882C40.5913 2.15496 40.5131 2.07479 40.4466 1.99168H40.4476ZM44.2559 9.5663C44.2285 9.57608 44.2011 9.58586 44.1738 9.59564C44.1611 9.7159 44.1356 9.83616 44.1356 9.95643C44.1298 18.282 44.1259 26.6075 44.1219 34.933C44.1219 35.0152 44.119 35.0973 44.1239 35.1794C44.1405 35.4434 44.1963 35.4992 44.4681 35.5197C44.5619 35.5265 44.6558 35.5236 44.7497 35.5236C45.7362 35.5236 46.7228 35.5236 47.7083 35.5236C48.1907 35.5236 48.4315 35.2831 48.4309 34.802C48.4211 30.2222 48.4094 25.6434 48.4016 21.0637C48.3986 19.291 48.3976 17.5174 48.4055 15.7447C48.4064 15.4494 48.3507 15.1981 48.1522 14.9664C47.9616 14.7445 47.8061 14.4932 47.636 14.2546C46.5927 12.7792 45.5514 11.3018 44.5062 9.82834C44.4378 9.73154 44.34 9.6543 44.2549 9.56826L44.2559 9.5663ZM49.1241 18.9361C49.0928 18.9537 49.0606 18.9713 49.0293 18.9889C49.0224 19.1023 49.0097 19.2167 49.0087 19.3301C49.0029 24.5308 48.998 29.7304 48.9931 34.9311C48.9931 35.025 48.9892 35.1198 48.999 35.2127C49.0224 35.4288 49.0899 35.4943 49.3109 35.5177C49.4037 35.5275 49.4986 35.5236 49.5925 35.5236C50.402 35.5236 51.2126 35.5236 52.0222 35.5236C52.116 35.5236 52.2099 35.5275 52.3038 35.5217C52.5981 35.505 52.6645 35.4356 52.6812 35.1325C52.6841 35.0856 52.6821 35.0386 52.6821 34.9917C52.6782 31.2821 52.6724 27.5725 52.6724 23.8639C52.6724 23.6293 52.6098 23.4357 52.467 23.248C51.4296 21.885 50.4011 20.5161 49.3656 19.1512C49.3021 19.0671 49.2043 19.0084 49.1231 18.938L49.1241 18.9361ZM32.4144 29.5818C32.2296 29.6679 32.1103 29.707 32.0096 29.7735C31.7847 29.9221 31.5803 30.1049 31.3467 30.235C31.0836 30.3816 31.0103 30.583 31.0123 30.8705C31.022 32.255 31.0162 33.6385 31.0162 35.023C31.0162 35.0934 31.0181 35.1638 31.0211 35.2342C31.0279 35.419 31.1276 35.5138 31.3105 35.5168C31.5569 35.5207 31.8033 35.5265 32.0497 35.5197C32.3684 35.5109 32.4339 35.4405 32.4476 35.1178C32.4496 35.0709 32.4486 35.024 32.4486 34.977C32.4476 33.3227 32.4457 31.6693 32.4437 30.015C32.4437 29.9015 32.43 29.7871 32.4163 29.5818H32.4144ZM31.023 21.8987H31.0201C31.0201 22.5195 31.0201 23.1414 31.0201 23.7623C31.0201 23.9031 31.0123 24.0448 31.025 24.1837C31.0436 24.3822 31.1423 24.433 31.3046 24.3206C31.6224 24.1006 31.9402 23.8786 32.2384 23.6332C32.3352 23.554 32.3753 23.4024 32.431 23.2792C32.4486 23.2401 32.4378 23.1864 32.4378 23.1394C32.4378 22.2252 32.4359 21.311 32.4359 20.3968C32.4359 20.2287 32.4359 20.0488 32.2726 19.9578C31.946 19.776 31.6107 19.6078 31.2714 19.4514C31.1394 19.3907 31.0436 19.4611 31.0289 19.6117C31.0211 19.6929 31.023 19.776 31.023 19.8571C31.023 20.5367 31.023 21.2172 31.023 21.8967V21.8987Z" fill="#202020"/>
<path d="M36.7683 52.0818C36.7683 51.9557 36.7683 51.8296 36.7683 51.7034C36.7683 49.7655 36.7683 47.8266 36.7683 45.8887C36.7683 45.8418 36.7663 45.7949 36.7683 45.7479C36.781 45.5055 36.8113 45.4752 37.0655 45.4644C37.2063 45.4585 37.3471 45.4624 37.4879 45.4624C37.9465 45.4624 38.4041 45.4585 38.8626 45.4644C39.1227 45.4683 39.1393 45.4918 39.1501 45.7499C39.152 45.8086 39.1501 45.8672 39.1501 45.9259C39.1501 49.2737 39.1501 52.6215 39.1501 55.9693C39.1501 56.29 38.9871 56.4507 38.6612 56.4514C38.097 56.4514 37.5339 56.4436 36.9697 56.4553C36.7321 56.4602 36.5825 56.3839 36.4554 56.1747C35.2019 54.1077 33.9377 52.0466 32.6764 49.9855C32.6246 49.9014 32.56 49.8252 32.5004 49.746C32.474 49.7528 32.4486 49.7587 32.4222 49.7655C32.4124 49.875 32.3948 49.9845 32.3948 50.094C32.3938 52.0554 32.3948 54.0178 32.3948 55.9791C32.3948 56.294 32.2403 56.4517 31.9313 56.4524C31.4259 56.4524 30.9213 56.4543 30.4158 56.4524C30.0384 56.4504 30.0159 56.4308 30.0159 56.0515C30.015 53.7254 30.0159 51.4003 30.0159 49.0743C30.0159 47.9938 30.0159 46.9125 30.0159 45.832C30.0159 45.4849 30.0306 45.4673 30.366 45.4654C30.9888 45.4615 31.6116 45.4732 32.2335 45.4595C32.4662 45.4546 32.5992 45.5495 32.7135 45.7372C33.6414 47.2605 34.5762 48.78 35.507 50.3023C35.8257 50.8235 36.1367 51.3475 36.4564 51.8687C36.5131 51.9615 36.5903 52.0417 36.6578 52.1278C36.6949 52.1131 36.7321 52.0994 36.7702 52.0847L36.7683 52.0818Z" fill="#202020"/>
<path d="M23.5139 45.1936C24.8309 45.2131 25.9983 45.5817 26.9957 46.403C27.8101 47.0738 28.3919 47.9166 28.7057 48.9325C29.1545 50.3835 29.134 51.8266 28.5982 53.2492C28.0565 54.6865 27.068 55.7503 25.6444 56.2861C23.686 57.0234 21.794 56.8288 20.0888 55.5215C19.0456 54.7227 18.4589 53.6423 18.1715 52.3771C18.0101 51.6692 17.9857 50.9525 18.06 50.2407C18.2702 48.206 19.2323 46.6553 21.094 45.7284C21.8615 45.3461 22.6896 45.1916 23.5139 45.1916V45.1936ZM26.4628 51.1461C26.4745 50.5438 26.4237 50.0452 26.2594 49.5602C25.8458 48.3429 24.7869 47.4864 23.4621 47.5001C22.1529 47.5138 21.1145 48.5355 20.8045 49.4663C20.4819 50.4353 20.4526 51.4013 20.7957 52.3644C21.1878 53.4663 21.9231 54.1986 23.1159 54.358C24.2149 54.5047 25.1301 54.1468 25.7891 53.2346C26.2575 52.5863 26.4667 51.8501 26.4628 51.1471V51.1461Z" fill="#202020"/>
<path d="M51.7513 56.1248C51.6232 56.1375 51.5205 56.1561 51.4188 56.1571C50.8078 56.16 50.1976 56.161 49.5865 56.1571C49.2297 56.1551 49.2042 56.1317 49.2042 55.7777C49.2023 54.533 49.2042 53.2874 49.2042 52.0427C49.2042 49.9053 49.2042 47.768 49.2042 45.6296C49.2042 45.5045 49.2042 45.3793 49.2042 45.2679C49.5298 45.175 51.41 45.1691 51.7767 45.2591C51.7767 45.3705 51.7767 45.4957 51.7767 45.6199C51.7767 46.7589 51.7767 47.898 51.7767 49.0381C51.7767 49.1202 51.7552 49.2131 51.7865 49.2815C51.8187 49.3529 51.8921 49.4233 51.9644 49.4546C52.0348 49.4849 52.1258 49.4663 52.2079 49.4663C53.3939 49.4663 54.5799 49.4663 55.7659 49.4663C55.848 49.4663 55.9302 49.4644 56.0123 49.4614C56.1414 49.4566 56.203 49.3871 56.2059 49.261C56.2079 49.1789 56.2079 49.0967 56.2079 49.0146C56.2079 47.8873 56.2079 46.7599 56.2079 45.6326C56.2079 45.5064 56.2079 45.3803 56.2079 45.2405C56.3232 45.2219 56.4005 45.1984 56.4787 45.1984C57.1367 45.1955 57.7938 45.1936 58.4518 45.1984C58.7745 45.2004 58.7881 45.216 58.7881 45.5407C58.7891 48.9471 58.7891 52.3526 58.7881 55.7591C58.7881 56.1297 58.7578 56.158 58.3853 56.16C57.7977 56.162 57.211 56.16 56.6234 56.16C56.2098 56.16 56.2079 56.16 56.2079 55.7552C56.2079 54.5575 56.2079 53.3597 56.2079 52.161C56.2079 51.8208 56.0426 51.6506 55.7121 51.6506C54.5261 51.6506 53.3401 51.6506 52.1541 51.6506C51.7884 51.6506 51.7777 51.6584 51.7777 52.0231C51.7767 53.2444 51.7777 54.4665 51.7767 55.6878C51.7767 55.8256 51.762 55.9635 51.7532 56.1268L51.7513 56.1248Z" fill="#202020"/>
<path d="M0 54.6279C0.503541 54.0745 1.00513 53.523 1.52431 52.952C1.61133 53.0195 1.68075 53.0586 1.7316 53.1143C2.68783 54.1742 3.89633 54.5585 5.28572 54.4099C5.56926 54.3795 5.86552 54.2808 6.11192 54.1371C6.7543 53.7616 6.74745 52.9726 6.10018 52.5981C5.82055 52.4358 5.50473 52.3165 5.19088 52.2373C4.67951 52.1082 4.15348 52.0408 3.63919 51.9244C2.82179 51.7396 2.04056 51.4727 1.37961 50.9212C0.826199 50.4597 0.522119 49.8721 0.436077 49.1701C0.256171 47.7025 0.950373 46.4226 2.26545 45.7401C3.35466 45.175 4.49472 45.0919 5.68562 45.308C6.91172 45.5309 7.91391 46.1332 8.75771 47.0278C8.80464 47.0777 8.84375 47.1364 8.88188 47.1853C8.77237 47.4473 7.76138 48.5922 7.35072 48.9169C7.27739 48.8328 7.20602 48.7457 7.12878 48.6626C6.23707 47.7035 5.17719 47.2117 3.8494 47.5255C3.62843 47.5783 3.4055 47.6898 3.22364 47.8276C2.64775 48.2618 2.74846 49.0195 3.42115 49.2806C3.76923 49.4155 4.13979 49.4947 4.50547 49.5798C5.00804 49.6951 5.5194 49.7763 6.01903 49.9005C6.7543 50.0833 7.44068 50.3776 8.01755 50.889C8.79877 51.5812 9.09503 52.468 9.00997 53.482C8.88677 54.9476 8.02342 55.8462 6.70052 56.3438C5.53407 56.7819 4.33632 56.7672 3.12978 56.5198C1.92715 56.2725 0.93864 55.6565 0.105597 54.7716C0.074309 54.7384 0.0518208 54.6983 0.00097775 54.6259L0 54.6279Z" fill="#202020"/>
<path d="M40.3497 45.4888H47.6447C47.6701 45.5446 47.6965 45.5759 47.6975 45.6081C47.7024 46.2065 47.7102 46.8059 47.7034 47.4042C47.7005 47.6184 47.6565 47.6409 47.367 47.6409C46.2866 47.6428 45.2062 47.6409 44.1258 47.6409C43.7855 47.6409 43.4443 47.6369 43.1041 47.6418C42.7931 47.6467 42.7609 47.679 42.7579 47.9899C42.753 48.4592 42.755 48.9295 42.7579 49.3989C42.7599 49.7929 42.7902 49.8242 43.1774 49.8252C44.4221 49.8271 45.6667 49.8252 46.9124 49.8252C46.9945 49.8252 47.0767 49.8212 47.1588 49.8271C47.3846 49.8418 47.4306 49.877 47.4335 50.1009C47.4414 50.6406 47.4414 51.1813 47.4335 51.722C47.4306 51.9547 47.3817 51.9948 47.1265 51.9967C46.5272 52.0016 45.9288 51.9987 45.3294 51.9987C44.601 51.9987 43.8735 51.9958 43.1451 51.9977C42.801 51.9977 42.7599 52.0388 42.7579 52.3829C42.754 52.8767 42.755 53.3695 42.7579 53.8633C42.7609 54.2475 42.7882 54.2739 43.1881 54.2739C44.5384 54.2739 45.8897 54.2739 47.2399 54.2739C47.3778 54.2739 47.5147 54.2739 47.6447 54.2739C47.676 54.3648 47.7034 54.4088 47.7034 54.4519C47.7063 55.0395 47.7063 55.6261 47.7073 56.2138C47.7073 56.3683 47.6408 56.4582 47.4746 56.4533C47.4042 56.4514 47.3338 56.4533 47.2634 56.4533C45.1026 56.4533 42.9417 56.4533 40.7809 56.4533C40.6988 56.4533 40.6167 56.4533 40.5345 56.4504C40.4211 56.4465 40.3644 56.381 40.3566 56.2724C40.3507 56.1903 40.3517 56.1082 40.3517 56.026C40.3517 52.643 40.3517 49.261 40.3517 45.878C40.3517 45.7636 40.3517 45.6492 40.3517 45.4898L40.3497 45.4888Z" fill="#202020"/>
<path d="M18.0111 45.4624V47.634C17.8674 47.6428 17.7432 47.6555 17.619 47.6565C16.915 47.6585 16.2101 47.6565 15.5061 47.6565C15.424 47.6565 15.3418 47.6526 15.2597 47.6585C15.0319 47.6751 14.9957 47.7103 14.982 47.9303C14.9771 48.0007 14.982 48.0711 14.982 48.1415C14.982 50.7364 14.982 53.3304 14.982 55.9253C14.982 56.0192 14.982 56.1131 14.9801 56.2069C14.9761 56.3595 14.9097 56.4504 14.7464 56.4504C14.0551 56.4504 13.3648 56.4504 12.6354 56.4504C12.6217 56.2744 12.5992 56.1277 12.5992 55.9811C12.5973 53.3744 12.5983 50.7687 12.5983 48.162C12.5983 47.825 12.4333 47.6565 12.1035 47.6565C11.3761 47.6565 10.6476 47.6575 9.9202 47.6565C9.55354 47.6565 9.54474 47.6467 9.54279 47.283C9.54083 46.7785 9.53887 46.273 9.54279 45.7685C9.54474 45.4957 9.57016 45.4683 9.84882 45.4654C10.4237 45.4595 10.9996 45.4634 11.5745 45.4634C13.5701 45.4634 15.5657 45.4634 17.5613 45.4634H18.0121L18.0111 45.4624Z" fill="#202020"/>
<path d="M64.248 45.1994C65.1192 45.1955 65.9327 45.1838 66.7931 45.2092C66.7931 45.3764 66.7931 45.5025 66.7931 45.6277C66.7931 48.2119 66.7931 50.7951 66.7931 53.3793C66.7931 53.4145 66.7931 53.4497 66.7931 53.4849C66.796 53.8818 66.8205 53.9102 67.2077 53.9122C67.8422 53.9151 68.4758 53.9122 69.1104 53.9122C69.827 53.9122 70.5428 53.9102 71.2594 53.9122C71.6134 53.9122 71.6388 53.9386 71.6408 54.2915C71.6437 54.797 71.6437 55.3015 71.6408 55.807C71.6388 56.1307 71.6153 56.1571 71.3074 56.1571C69.0644 56.159 66.8214 56.159 64.5775 56.1571C64.2822 56.1571 64.2548 56.1277 64.25 55.8334C64.2441 55.458 64.249 55.0815 64.249 54.7061C64.249 51.6878 64.249 48.6695 64.249 45.6511C64.249 45.524 64.249 45.3969 64.249 45.1994H64.248Z" fill="#202020"/>
<path d="M75.1635 45.2297V45.6531C75.1635 48.2471 75.1635 50.841 75.1635 53.435C75.1635 53.5171 75.1635 53.5993 75.1654 53.6814C75.1694 53.8242 75.2505 53.8946 75.3864 53.9043C75.492 53.9122 75.5976 53.9112 75.7032 53.9112C76.9704 53.9112 78.2385 53.9112 79.5057 53.9112C79.5761 53.9112 79.6465 53.9082 79.7169 53.9112C79.9457 53.9239 79.9789 53.9562 79.9975 54.1781C80.0024 54.2368 79.9985 54.2954 79.9985 54.3541C79.9985 54.8117 80.0004 55.2693 79.9975 55.7278C79.9975 55.853 79.9799 55.9781 79.9691 56.1287C79.841 56.1395 79.7394 56.1561 79.6377 56.1561C77.4309 56.1571 75.2241 56.158 73.0183 56.1561C72.6331 56.1561 72.6194 56.1424 72.6184 55.763C72.6184 52.3595 72.6184 48.955 72.6184 45.5514C72.6184 45.2053 72.6262 45.1965 72.9743 45.1955C73.5962 45.1926 74.218 45.1936 74.8408 45.1955C74.9318 45.1955 75.0217 45.2141 75.1625 45.2288L75.1635 45.2297Z" fill="#202020"/>
<path d="M62.8058 45.2444V45.6042C62.8058 48.9716 62.8058 52.339 62.8058 55.7063C62.8058 55.7533 62.8078 55.8002 62.8058 55.8471C62.796 56.1424 62.7833 56.1571 62.4753 56.159C61.8418 56.161 61.2082 56.162 60.5746 56.159C60.2412 56.1571 60.2158 56.1317 60.2158 55.7933C60.2148 52.3556 60.2158 48.9178 60.2158 45.48C60.2158 45.4106 60.2275 45.3412 60.2334 45.2767C60.4768 45.1809 62.2896 45.1535 62.8058 45.2454V45.2444Z" fill="#202020"/>
</svg>
