<svg width="65" height="76" viewBox="0 0 65 76" fill="none" xmlns="http://www.w3.org/2000/svg">
<path d="M49.7298 75.7226C48.2882 75.3612 46.9138 74.8753 45.7941 73.8326C44.2558 72.4028 43.4047 70.659 43.3632 68.5538C43.3336 67.0766 43.3691 65.5974 43.3316 64.1182C43.3257 63.901 43.1026 63.5297 42.9347 63.5001C40.1622 63.0261 37.6167 61.8866 35.0654 60.7925C33.5744 60.1526 32.048 60.1724 30.4978 60.1842C30.3497 60.1842 30.1996 60.1981 30.0535 60.1823C28.9516 60.0618 28.2664 60.2514 27.6897 61.4995C26.3904 64.3157 22.4231 64.5527 20.5609 62.0604C20.2213 61.6042 19.8836 61.464 19.3445 61.4659C14.1944 61.4837 9.04228 61.4798 3.89216 61.4738C1.96877 61.4719 0.594351 60.5219 0.140161 58.865C0.0315504 58.4681 0.00587877 58.0376 0.00587877 57.6248C-0.00202019 51.5876 -0.00596966 45.5504 0.00390403 39.5132C0.0078535 37.1138 1.47706 35.6721 3.90006 35.6701C8.97711 35.6642 14.0542 35.6662 19.1312 35.6701C19.5143 35.6701 19.7849 35.6602 19.9764 35.1981C20.786 33.2529 22.5297 32.2714 24.5854 32.5241C26.4654 32.7552 27.9109 34.2146 28.2664 36.2369C28.2881 36.3574 28.2999 36.4798 28.3177 36.6161C30.6755 36.9123 32.7293 36.4541 34.1925 34.3944C34.5914 33.8335 35.0535 33.3161 35.4662 32.7631C37.3284 30.2748 39.8442 28.9417 42.8932 28.5428C42.988 28.5309 43.0789 28.5053 43.2349 28.4757C43.1894 27.034 42.8379 25.6773 42.2001 24.4351C41.6097 23.2857 40.9205 22.1541 40.1049 21.1548C35.8671 15.9727 35.6953 8.81577 39.8482 3.56458C40.7348 2.44285 41.9098 1.53638 43.0117 0.598314C43.8312 -0.0988173 44.7989 -0.193611 45.7764 0.311957C46.7538 0.817525 47.1626 1.67265 47.1646 2.73908C47.1705 5.45058 47.1606 8.16011 47.1745 10.8716C47.1764 11.3357 47.1903 11.8176 47.3087 12.2619C47.7629 13.9386 49.2914 14.9537 51.0706 14.8135C52.6879 14.6851 54.1157 13.3619 54.1868 11.6872C54.2894 9.27591 54.2361 6.85867 54.248 4.44537C54.25 3.87858 54.2539 3.31179 54.248 2.745C54.2401 1.6687 54.6508 0.823449 55.6244 0.315906C56.5999 -0.193611 57.5063 -0.0158726 58.4028 0.582515C65.267 5.16422 66.6296 14.7404 61.2721 21.135C59.6765 23.0388 58.5509 25.15 58.2646 27.6008C58.0276 29.6191 58.0592 31.669 57.9684 33.7802C60.81 33.7979 62.6979 34.9513 63.2646 37.7319C63.6458 39.6041 62.7927 41.1761 60.6738 42.6671C61.3432 43.7237 61.7243 44.8671 61.4992 46.1429C61.28 47.391 60.6185 48.3686 59.5738 49.1881C60.5731 50.4165 61.051 51.8088 60.7686 53.3689C60.4783 54.9666 59.487 56.0449 57.9644 56.746C58.6082 57.7196 58.9182 58.7663 58.7721 59.9058C58.7227 60.2929 58.6832 60.7175 58.4956 61.0433C58.0395 61.8352 58.0375 62.6746 58.0454 63.5376C58.0592 65.2123 58.0809 66.8889 58.0336 68.5636C57.9328 72.1006 55.4664 74.9464 51.9968 75.5922C51.8803 75.6139 51.7697 75.6752 51.6571 75.7186H49.7337L49.7298 75.7226ZM28.3572 38.9543V57.9684C29.3051 57.9684 30.1917 57.9882 31.0764 57.9645C32.6384 57.923 34.1629 58.0257 35.6341 58.6557C37.2613 59.3528 38.9043 60.0203 40.5769 60.597C45.1069 62.1571 49.8226 61.7464 54.4889 61.772C55.5118 61.778 56.3471 60.8873 56.5347 59.9255C56.744 58.8532 56.3195 57.9289 55.3558 57.3641C55.2077 57.2772 54.9846 57.2358 54.9174 57.1074C54.6982 56.7006 54.3882 56.2641 54.3882 55.8375C54.3882 55.2925 54.8207 54.9153 55.4091 54.8501C55.8001 54.8067 56.197 54.8284 56.588 54.781C57.8835 54.621 58.6971 53.6178 58.6082 52.3223C58.5233 51.0781 57.7433 50.2664 56.4024 50.0314C55.6204 49.8932 55.2432 49.4804 55.3005 48.8248C55.3558 48.2106 55.7922 47.8511 56.5347 47.8097C56.7559 47.7978 56.981 47.8156 57.1982 47.7801C58.2093 47.6161 58.9064 47.0592 59.2302 46.0777C59.5126 45.2186 59.2263 44.1858 58.4759 43.6249C58.1145 43.3563 57.6564 43.1904 57.216 43.0621C56.5861 42.8784 56.2247 42.521 56.2504 41.8574C56.2721 41.2472 56.7539 40.8502 57.4629 40.8305C57.9309 40.8166 58.4009 40.8482 58.8669 40.8147C59.878 40.7436 60.6876 40.0899 60.9897 39.136C61.284 38.2098 61.049 37.1651 60.2235 36.6319C59.7022 36.2942 59.0012 36.0868 58.3772 36.0769C54.5837 36.0216 50.7902 36.0473 46.9967 36.0355C44.7041 36.0276 43.3711 34.6945 43.3514 32.4155C43.3474 31.8823 43.3514 31.3491 43.3514 30.8179C41.4418 30.7803 39.0425 31.9534 37.6701 33.5866C36.9572 34.4339 36.2976 35.3265 35.6005 36.1875C34.4374 37.6233 32.9564 38.5436 31.1159 38.7904C30.2194 38.9109 29.3051 38.9069 28.3592 38.9603L28.3572 38.9543ZM19.6486 37.8899H18.9278C13.9515 37.8899 8.97514 37.8899 3.9988 37.8899C2.66388 37.8899 2.22153 38.3303 2.22153 39.6594C2.21759 45.5958 2.21956 51.5323 2.22153 57.4688C2.22153 58.8394 2.65203 59.258 4.05014 59.26C8.97711 59.262 13.9041 59.26 18.8311 59.26C19.0897 59.26 19.3465 59.2324 19.5716 59.2185C19.6131 59.0744 19.6367 59.027 19.6367 58.9796C19.6427 58.3397 19.6407 57.6979 19.6506 57.058C19.6644 56.1437 20.087 55.6144 20.7781 55.6341C21.4456 55.6519 21.8485 56.1634 21.8643 57.0363C21.882 57.923 21.8406 58.8117 21.9097 59.6945C21.9966 60.7984 22.9188 61.5627 24.0246 61.537C25.2628 61.5094 26.0704 60.5772 26.0724 59.1435C26.0764 52.0991 26.0724 45.0547 26.0724 38.0103C26.0724 37.568 26.0902 37.1217 26.0606 36.6813C25.9895 35.5753 25.1324 34.7498 24.0424 34.7123C22.7312 34.6669 21.8702 35.601 21.8682 37.1236C21.8583 41.7053 21.8662 46.287 21.8623 50.8688C21.8623 51.163 21.8682 51.4632 21.8149 51.7515C21.7043 52.3381 21.3172 52.6619 20.7268 52.6481C20.1364 52.6343 19.7651 52.3005 19.6782 51.7061C19.6387 51.4395 19.6486 51.165 19.6466 50.8944C19.6466 46.8795 19.6466 42.8646 19.6466 38.8497V37.8919L19.6486 37.8899ZM55.8297 33.7861C55.8297 32.4866 55.8258 31.2583 55.8297 30.0279C55.8436 26.1413 57.0482 22.7189 59.5679 19.7072C62.4787 16.2275 63.0889 12.2599 61.5585 8.00014C60.737 5.71126 59.2697 3.88253 57.2595 2.50407C57.0936 2.38953 56.8685 2.3599 56.671 2.29276C56.6019 2.49024 56.4814 2.68773 56.4755 2.88719C56.4518 3.67517 56.4696 4.46314 56.4636 5.25309C56.4478 7.49458 56.5209 9.74198 56.3827 11.9756C56.2168 14.6871 53.7977 16.9088 51.0904 17.0391C47.6879 17.2011 45.0319 14.7759 44.9628 11.3574C44.9075 8.57483 44.9549 5.78829 44.9371 3.00569C44.9371 2.76278 44.789 2.52184 44.708 2.28091C44.4908 2.37175 44.244 2.4231 44.0603 2.55739C40.9698 4.81862 39.2735 7.85795 39.08 11.6892C38.922 14.8115 39.9292 17.5526 41.977 19.9047C43.6318 21.8065 44.8028 23.967 45.1602 26.4573C45.4347 28.373 45.4782 30.3261 45.5631 32.2635C45.6203 33.5728 46.116 33.9954 47.5082 33.7051C47.5082 33.4543 47.5082 33.1897 47.5082 32.9231C47.5082 30.4584 47.4884 27.9958 47.5161 25.5311C47.5418 23.343 49.6113 21.8578 51.6709 22.5076C53.3278 23.0289 54.4198 25.0769 53.8037 26.6765C53.6733 27.0142 53.1125 27.3914 52.761 27.3816C52.4095 27.3717 52.0106 26.9471 51.7519 26.6114C51.6018 26.4178 51.6828 26.0426 51.6709 25.7483C51.6453 25.0236 51.2977 24.5891 50.7191 24.5753C50.1208 24.5614 49.7278 25.0216 49.7258 25.7799C49.7199 28.2189 49.7219 30.6579 49.7258 33.0969C49.7258 33.3121 49.7456 33.5294 49.7594 33.7821H51.669C51.669 33.3951 51.669 33.0554 51.669 32.7137C51.669 32.3681 51.6591 32.0225 51.6729 31.6789C51.7045 30.883 52.1469 30.4189 52.8341 30.4446C53.4956 30.4683 53.8708 30.9067 53.8846 31.6986C53.8965 32.38 53.8866 33.0633 53.8866 33.7861H55.8278H55.8297ZM53.8826 64.0984C53.8826 65.4809 53.9142 66.8317 53.8748 68.1805C53.8214 70.0942 52.0698 71.5023 50.1919 71.1823C48.616 70.9137 47.5339 69.6617 47.5121 68.0442C47.4944 66.7033 47.5082 65.3604 47.5082 63.9582H45.573C45.573 65.4749 45.5532 66.9502 45.5769 68.4234C45.6203 71.05 47.5516 73.175 50.1425 73.4811C52.682 73.7813 55.2413 72.1026 55.6402 69.5175C55.9265 67.6572 55.6955 65.7159 55.6955 63.8259C55.1485 63.9089 54.5679 63.9958 53.8807 64.1004L53.8826 64.0984ZM49.7318 64.0372C49.7318 65.4354 49.716 66.7586 49.7397 68.0837C49.7495 68.6268 50.101 68.9547 50.6224 69.0001C51.1476 69.0455 51.6058 68.7631 51.6275 68.2378C51.6867 66.8494 51.6473 65.4572 51.6473 64.0372H49.7318Z" fill="#999999"/>
</svg>
