<svg width="76" height="76" viewBox="0 0 76 76" fill="none" xmlns="http://www.w3.org/2000/svg">
<g clip-path="url(#clip0_142_225)">
<path d="M69.2152 75.9416H1.18317C0.788284 75.5467 0.394882 75.1533 0 74.7585C0 66.7721 0 58.7857 0 50.7993C0.0325371 50.7638 0.0872585 50.7313 0.0916954 50.6914C0.422982 48.4463 1.40501 46.537 3.00228 44.9279C3.16349 44.7652 3.23892 44.4531 3.24335 44.2076C3.26702 42.9017 3.24483 41.5958 3.25666 40.2899C3.26702 39.2132 3.85564 38.5299 4.74154 38.5343C5.62448 38.5403 6.19979 39.225 6.21014 40.3032C6.21902 41.127 6.21162 41.9507 6.21162 42.8544C8.66373 41.9419 11.0301 41.9803 13.4467 42.7923V27.0133C10.4474 28.3162 10.0983 28.3162 6.21162 27.0207C6.21162 27.6492 6.22345 28.2571 6.20866 28.8634C6.18352 29.8647 5.55644 30.545 4.70161 30.5228C3.87339 30.5006 3.26702 29.841 3.2611 28.8708C3.24483 26.3566 3.2123 23.8424 3.27145 21.3296C3.34244 18.2933 5.22368 15.9093 8.08546 15.0322C8.44041 14.9228 8.79536 14.695 9.06009 14.4318C12.9749 10.5392 16.8882 6.64506 20.769 2.71843C21.9344 1.5397 23.1605 0.52218 24.845 0.218994H26.324C28.0115 0.582818 29.2553 1.61809 30.4251 2.82344C32.5193 4.97976 34.6712 7.08136 36.7935 9.21254C37.9767 10.4001 39.2086 11.5449 40.3119 12.8005C42.1281 14.8666 41.7894 17.9532 39.4837 19.4395C38.5978 20.0104 38.447 20.602 38.5254 21.4672C38.5357 21.5899 38.5402 21.7156 38.5254 21.8369C38.4499 22.3974 38.657 22.8101 39.0755 23.1961C39.8712 23.9311 40.6373 24.7017 41.3738 25.4973C41.646 25.7916 41.9462 26.1821 41.9772 26.5518C42.0601 27.5294 42.0512 28.5218 41.9876 29.5024C41.9418 30.2182 41.3354 30.6959 40.6329 30.721C39.9141 30.7462 39.3107 30.335 39.1879 29.6207C39.0888 29.0439 39.1273 28.4449 39.0755 27.8578C39.0548 27.627 39.0179 27.349 38.8788 27.1848C38.3227 26.5341 37.7238 25.9188 37.1721 25.3243C35.7508 26.4202 34.5854 27.4939 35.004 29.3766C35.0188 29.4447 34.9892 29.5231 34.9773 29.5955C34.8368 30.4297 34.2364 30.9843 33.494 30.9665C32.7071 30.9488 32.1082 30.3454 32.0697 29.4654C32.0342 28.6534 31.981 27.8297 32.0815 27.0295C32.1481 26.5075 32.3699 25.9262 32.7071 25.5314C33.457 24.6529 34.3266 23.8779 35.14 23.0526C35.2924 22.8988 35.5157 22.7154 35.5246 22.535C35.5645 21.7748 35.6281 20.9939 35.4861 20.2574C35.4343 19.9912 34.8324 19.8344 34.4849 19.62C34.3591 19.5431 34.2379 19.4528 34.1329 19.3508C32.3699 17.6293 30.6026 15.9137 28.8545 14.1789C28.1771 13.5074 27.5441 12.7901 26.8874 12.0891C26.6834 12.2488 26.602 12.3021 26.5355 12.3686C23.2921 15.609 20.0443 18.8435 16.8231 22.1061C16.6028 22.3294 16.4889 22.7539 16.4874 23.0866C16.4682 29.174 16.4726 35.2629 16.4756 41.3503C16.4756 41.6091 16.5037 41.8664 16.52 42.1238H21.7969C21.7969 41.8206 21.7969 41.5588 21.7969 41.2956C21.7969 38.6586 21.7895 36.0201 21.8013 33.3831C21.8072 32.1423 22.2997 31.5389 23.4045 31.53C26.8801 31.5049 30.3556 31.5063 33.8297 31.53C34.8428 31.5374 35.3353 32.0861 35.3974 33.1081C35.4107 33.3299 35.4033 33.5517 35.4048 33.7736C35.4048 36.3366 35.4018 38.8997 35.4092 41.4642C35.4092 41.7526 35.2731 42.1608 35.8041 42.1608C37.6469 42.1608 39.4896 42.1608 41.4093 42.1608V41.2926C41.4093 38.7532 41.4093 36.2153 41.4093 33.676C41.4093 31.9323 41.8323 31.5167 43.6041 31.5152C45.8713 31.5152 48.1401 31.5152 50.4073 31.5152H51.484C51.657 29.5837 52.3137 27.9066 53.5397 26.4882C54.7791 25.0551 56.3586 24.153 58.2621 23.693C57.2549 22.2141 57.0035 20.6301 57.0892 18.9707C57.1159 18.4442 57.0774 18.0123 56.5672 17.6382C56.2921 17.437 56.1368 16.9076 56.1324 16.523C56.1043 13.7367 57.1913 11.465 59.5532 9.95645C62.0645 8.3503 64.7133 8.266 67.3162 9.76567C69.8068 11.2017 70.9811 13.4542 71.0772 16.2953C71.0994 16.9386 70.95 17.511 70.3762 17.9132C70.2431 18.0064 70.1129 18.2179 70.1159 18.3717C70.1632 20.2278 70.0893 22.0558 68.9342 23.6708C69.2004 23.7625 69.3602 23.8276 69.5258 23.8734C71.5239 24.4414 73.0782 25.6053 74.2659 27.3091C75.0734 28.4686 75.4076 29.7893 75.7226 31.1277V44.882C75.3677 45.7102 75.1163 46.605 74.6371 47.3534C73.6802 48.8516 72.1879 49.5674 70.3984 49.7937V50.6988C70.3984 58.4529 70.391 66.2071 70.4087 73.9628C70.4102 74.9034 70.1248 75.5896 69.2152 75.9416ZM56.7535 72.963V55.535H19.7929V59.6154H20.7202C25.9202 59.6154 31.1202 59.6154 36.3217 59.6169C36.6412 59.6169 36.9651 59.6198 37.2801 59.6672C37.9915 59.7722 38.4706 60.3238 38.4958 61.0263C38.5209 61.7362 38.0891 62.3337 37.3954 62.4816C37.0612 62.5526 36.7122 62.5704 36.369 62.5704C31.1439 62.5763 25.9187 62.5733 20.6936 62.5733C20.4037 62.5733 20.1138 62.5733 19.8047 62.5733V72.963H56.755H56.7535ZM38.6082 45.1231C31.3643 45.1231 24.1203 45.1231 16.8764 45.1246C16.483 45.1246 16.0881 45.1335 15.6962 45.1689C13.5754 45.3627 12.0417 47.4909 12.5164 49.5733C12.9512 51.4797 14.4213 52.5164 16.7152 52.5164C31.3021 52.5179 45.8876 52.5164 60.4746 52.5149C60.8428 52.5149 61.2141 52.4898 61.5794 52.4454C63.7164 52.1851 65.1791 50.0658 64.6674 47.979C64.2163 46.1391 62.8025 45.1275 60.6358 45.1261C53.2928 45.1216 45.9512 45.1246 38.6082 45.1246V45.1231ZM10.5257 45.0713C9.6709 45.1704 8.90332 45.1645 8.19047 45.3568C4.9693 46.2264 2.97566 48.8279 2.96531 52.2044C2.94165 58.9573 2.95792 65.7117 2.96087 72.4646C2.96087 72.6273 3.0008 72.7885 3.02003 72.9334H16.7285V55.5631C15.8796 55.4314 15.0854 55.2747 14.2823 55.2007C13.9924 55.1741 13.6005 55.251 13.3979 55.4359C11.7444 56.9592 9.47716 57.3275 7.59149 56.3277C5.61264 55.2791 4.55519 53.1849 4.91753 51.0241C5.27544 48.8885 6.9866 47.2602 9.19912 46.9141C9.43575 46.8771 9.73893 46.744 9.85429 46.5592C10.1072 46.151 10.261 45.6822 10.5272 45.0699L10.5257 45.0713ZM67.4405 46.469C67.4405 46.2368 67.4405 46.0046 67.4405 45.7709C67.4405 42.0247 67.436 38.277 67.4434 34.5308C67.4449 33.4615 68.0483 32.7664 68.9253 32.7709C69.8024 32.7753 70.3895 33.4689 70.3954 34.5426C70.4043 36.1695 70.3984 37.7963 70.3984 39.4232C70.3984 41.862 70.3984 44.2993 70.3984 46.7426C71.7723 46.5695 72.744 45.5269 72.7529 44.1248C72.7765 40.0577 72.815 35.9891 72.7396 31.9234C72.6834 28.8989 70.4753 26.6524 67.4523 26.54C64.8197 26.4409 62.1783 26.4675 59.5443 26.5518C57.2046 26.6273 55.171 28.3754 54.6194 30.6559C54.5173 31.076 54.5632 31.5522 54.6312 31.987C54.7052 32.4558 54.9862 32.9054 54.9995 33.3683C55.0468 35.0189 55.0172 36.6709 55.0172 38.3229C55.0172 39.5741 55.0172 40.8253 55.0172 42.1134H56.792C56.792 41.7954 56.792 41.5263 56.792 41.2586C56.792 38.9913 56.7831 36.7226 56.7964 34.4554C56.8023 33.4438 57.4235 32.7664 58.2783 32.7709C59.1332 32.7768 59.7247 33.4556 59.7469 34.4702C59.7588 35.0115 59.7499 35.5542 59.7499 36.097C59.7499 38.0892 59.7499 40.0813 59.7499 42.1415C61.3575 42.1489 62.9075 42.1889 64.3066 42.9978C65.7145 43.8127 66.7099 44.9856 67.4405 46.4675V46.469ZM44.419 34.5027V42.0972H52.012V34.5027H44.419ZM24.8524 34.5086C24.8154 34.6166 24.7725 34.6861 24.7725 34.7541C24.7651 37.0687 24.7696 39.3847 24.7518 41.6993C24.7489 42.2022 25.0639 42.1637 25.3922 42.1637C27.4864 42.1637 29.5792 42.1637 31.6734 42.1608C31.91 42.1608 32.1466 42.1371 32.3966 42.1238V34.5086H24.8524ZM15.8633 18.6409C18.5121 15.995 21.1151 13.395 23.7373 10.7743C22.1548 10.1679 21.0145 9.01731 20.4362 7.48068C17.8081 10.1073 15.1904 12.7236 12.5475 15.365C14.0131 16.0424 15.1578 17.1501 15.8618 18.6424L15.8633 18.6409ZM67.4198 51.2578C66.8326 52.0343 66.2647 52.8876 65.5844 53.6419C65.2472 54.0161 65.0608 54.3326 65.0623 54.8458C65.08 60.6093 65.0741 66.3742 65.0741 72.1377V72.9305H67.4198V51.2593V51.2578ZM59.8002 55.5083V72.9216H62.0556V55.4033C61.285 55.4388 60.5737 55.4714 59.8002 55.5069V55.5083ZM29.0053 10.0615C31.2459 12.3243 33.5117 14.6122 35.7804 16.8972C35.8662 16.983 35.9756 17.0481 36.0806 17.1102C36.6989 17.4799 37.3052 17.4341 37.8672 17.0022C38.4366 16.563 38.6126 15.9521 38.3923 15.2896C38.2813 14.9568 38.0314 14.6447 37.7785 14.3889C35.5808 12.1704 33.3668 9.96532 31.1572 7.75872C31.0418 7.64336 30.9102 7.54427 30.8363 7.4792C30.2062 8.36805 29.6043 9.21697 29.0068 10.06L29.0053 10.0615ZM13.5014 21.377C13.4896 19.3685 11.8982 17.7727 9.88979 17.7565C7.88284 17.7402 6.21014 19.4055 6.2205 21.411C6.23085 23.3795 7.88284 25.0359 9.85134 25.0492C11.8568 25.0625 13.5147 23.3957 13.5029 21.377H13.5014ZM60.0664 18.1587C60.0664 18.9278 60.0176 19.6185 60.0753 20.3003C60.2232 22.0469 61.5749 23.3351 63.3792 23.5037C65.0002 23.656 66.6226 22.532 66.9879 20.8652C67.1772 20.0001 67.1299 19.0831 67.192 18.1587H60.0664ZM25.5638 8.09001C26.9392 8.08705 28.0041 7.03699 28.0144 5.67487C28.0248 4.3024 26.9126 3.17839 25.5446 3.18135C24.212 3.1843 23.1043 4.28021 23.0836 5.61275C23.0643 6.97931 24.1795 8.09444 25.5623 8.09001H25.5638ZM9.37215 49.943C8.53211 50.1235 7.97454 50.6914 7.84735 51.5714C7.7172 52.4735 8.14314 53.3106 8.93734 53.7129C9.70788 54.1019 10.5036 53.9702 11.0981 53.4304C10.5228 52.2694 9.96522 51.141 9.37215 49.943ZM67.9803 15.1358C67.5144 13.5873 66.6063 12.5698 65.1126 11.9826V15.1358H67.9803ZM62.0437 15.1343V11.9752C60.5781 12.6304 59.6212 13.5917 59.2411 15.1343H62.0437Z" fill="#999999"/>
<path d="M6.2028 34.9922C6.18801 35.7657 5.47959 36.4534 4.71201 36.4387C3.93851 36.4239 3.25376 35.7154 3.26855 34.9464C3.28334 34.167 3.98288 33.4911 4.75934 33.5044C5.53727 33.5192 6.21759 34.2202 6.2028 34.9922Z" fill="#999999"/>
<path d="M44.1987 61.1151C44.1765 61.9078 43.4977 62.5482 42.6961 62.5319C41.89 62.5157 41.2467 61.8516 41.2659 61.053C41.2837 60.2528 41.9507 59.6213 42.7597 59.6376C43.5554 59.6539 44.2209 60.3372 44.1987 61.1166V61.1151Z" fill="#999999"/>
<path d="M21.8782 48.7954C21.8871 49.5866 21.2275 50.2477 20.4229 50.2551C19.6184 50.2625 18.9499 49.6162 18.941 48.822C18.9321 48.0367 19.5977 47.3682 20.3963 47.3608C21.1964 47.3534 21.8708 48.0056 21.8782 48.7954Z" fill="#999999"/>
<path d="M29.8942 47.3622C30.6928 47.3726 31.3554 48.044 31.3421 48.8294C31.3288 49.6236 30.6588 50.2669 29.8542 50.2566C29.0512 50.2462 28.3916 49.5792 28.4049 48.7909C28.4182 48.0012 29.0941 47.3534 29.8927 47.3637L29.8942 47.3622Z" fill="#999999"/>
<path d="M39.3728 47.3622C40.17 47.377 40.8296 48.0574 40.8074 48.8412C40.7852 49.6369 40.1138 50.2728 39.3078 50.2566C38.5076 50.2403 37.851 49.5644 37.8717 48.7776C37.8924 47.9864 38.5712 47.346 39.3714 47.3622H39.3728Z" fill="#999999"/>
<path d="M50.2728 48.8368C50.2535 49.6324 49.5821 50.2699 48.7775 50.2565C47.9759 50.2432 47.3193 49.5703 47.337 48.782C47.3548 47.9908 48.0321 47.3489 48.8322 47.3622C49.6309 47.3755 50.2905 48.0514 50.2728 48.8368Z" fill="#999999"/>
<path d="M58.3065 47.3623C59.1036 47.38 59.7618 48.0603 59.7381 48.8442C59.7144 49.6413 59.04 50.2728 58.2355 50.2551C57.4368 50.2374 56.7802 49.5585 56.8038 48.7732C56.8275 47.9819 57.5063 47.3445 58.3065 47.3608V47.3623Z" fill="#999999"/>
<path d="M11.3363 21.4243C11.3185 22.2081 10.6249 22.8692 9.83809 22.853C9.03945 22.8367 8.40054 22.1652 8.41681 21.3622C8.43308 20.5695 9.12079 19.9039 9.89872 19.9261C10.6811 19.9483 11.3525 20.6493 11.3348 21.4243H11.3363Z" fill="#999999"/>
<path d="M25.5934 4.19591C26.3861 4.21366 27.0531 4.90285 27.028 5.67783C27.0028 6.45428 26.2915 7.13016 25.5224 7.10946C24.7312 7.08875 24.0819 6.40252 24.1011 5.60684C24.1204 4.79933 24.777 4.17668 25.5934 4.19443V4.19591Z" fill="#999999"/>
</g>
<defs>
<clipPath id="clip0_142_225">
<rect width="75.7226" height="75.7226" fill="white" transform="translate(0 0.218994)"/>
</clipPath>
</defs>
</svg>
